<svg width="2214" height="453" viewBox="0 0 2214 453" fill="none" xmlns="http://www.w3.org/2000/svg">
<path d="M475.486 286.664C463.054 286.664 451.14 285.036 439.744 281.78C428.348 278.376 419.172 274.01 412.216 268.682L424.426 241.598C431.086 246.334 438.93 250.256 447.958 253.364C457.134 256.324 466.384 257.804 475.708 257.804C482.812 257.804 488.51 257.138 492.802 255.806C497.242 254.326 500.498 252.328 502.57 249.812C504.642 247.296 505.678 244.41 505.678 241.154C505.678 237.01 504.05 233.754 500.794 231.386C497.538 228.87 493.246 226.872 487.918 225.392C482.59 223.764 476.67 222.284 470.158 220.952C463.794 219.472 457.356 217.696 450.844 215.624C444.48 213.552 438.634 210.888 433.306 207.632C427.978 204.376 423.612 200.084 420.208 194.756C416.952 189.428 415.324 182.62 415.324 174.332C415.324 165.452 417.692 157.386 422.428 150.134C427.312 142.734 434.564 136.888 444.184 132.596C453.952 128.156 466.162 125.936 480.814 125.936C490.582 125.936 500.202 127.12 509.674 129.488C519.146 131.708 527.508 135.112 534.76 139.7L523.66 167.006C516.408 162.862 509.156 159.828 501.904 157.904C494.652 155.832 487.548 154.796 480.592 154.796C473.636 154.796 467.938 155.61 463.498 157.238C459.058 158.866 455.876 161.012 453.952 163.676C452.028 166.192 451.066 169.152 451.066 172.556C451.066 176.552 452.694 179.808 455.95 182.324C459.206 184.692 463.498 186.616 468.826 188.096C474.154 189.576 480 191.056 486.364 192.536C492.876 194.016 499.314 195.718 505.678 197.642C512.19 199.566 518.11 202.156 523.438 205.412C528.766 208.668 533.058 212.96 536.314 218.288C539.718 223.616 541.42 230.35 541.42 238.49C541.42 247.222 538.978 255.214 534.094 262.466C529.21 269.718 521.884 275.564 512.116 280.004C502.496 284.444 490.286 286.664 475.486 286.664ZM583.532 191.204H658.346V219.176H583.532V191.204ZM586.196 255.14H670.778V284H550.454V128.6H667.892V157.46H586.196V255.14ZM683.854 284V128.6H751.12C765.032 128.6 777.02 130.894 787.084 135.482C797.148 139.922 804.918 146.36 810.394 154.796C815.87 163.232 818.608 173.296 818.608 184.988C818.608 196.532 815.87 206.522 810.394 214.958C804.918 223.246 797.148 229.61 787.084 234.05C777.02 238.49 765.032 240.71 751.12 240.71H703.834L719.818 224.948V284H683.854ZM782.644 284L743.794 227.612H782.2L821.494 284H782.644ZM719.818 228.944L703.834 212.072H749.122C760.222 212.072 768.51 209.704 773.986 204.968C779.462 200.084 782.2 193.424 782.2 184.988C782.2 176.404 779.462 169.744 773.986 165.008C768.51 160.272 760.222 157.904 749.122 157.904H703.834L719.818 140.81V228.944ZM878.182 284L811.138 128.6H849.988L908.596 266.24H885.73L945.226 128.6H980.968L913.702 284H878.182ZM978.403 284V128.6H1045.67C1059.58 128.6 1071.57 130.894 1081.63 135.482C1091.7 139.922 1099.47 146.36 1104.94 154.796C1110.42 163.232 1113.16 173.296 1113.16 184.988C1113.16 196.532 1110.42 206.522 1104.94 214.958C1099.47 223.394 1091.7 229.906 1081.63 234.494C1071.57 238.934 1059.58 241.154 1045.67 241.154H998.383L1014.37 224.948V284H978.403ZM1014.37 228.944L998.383 211.85H1043.67C1054.77 211.85 1063.06 209.482 1068.53 204.746C1074.01 200.01 1076.75 193.424 1076.75 184.988C1076.75 176.404 1074.01 169.744 1068.53 165.008C1063.06 160.272 1054.77 157.904 1043.67 157.904H998.383L1014.37 140.81V228.944ZM1123.29 284V128.6H1190.56C1204.47 128.6 1216.46 130.894 1226.52 135.482C1236.59 139.922 1244.36 146.36 1249.83 154.796C1255.31 163.232 1258.05 173.296 1258.05 184.988C1258.05 196.532 1255.31 206.522 1249.83 214.958C1244.36 223.246 1236.59 229.61 1226.52 234.05C1216.46 238.49 1204.47 240.71 1190.56 240.71H1143.27L1159.26 224.948V284H1123.29ZM1222.08 284L1183.23 227.612H1221.64L1260.93 284H1222.08ZM1159.26 228.944L1143.27 212.072H1188.56C1199.66 212.072 1207.95 209.704 1213.42 204.968C1218.9 200.084 1221.64 193.424 1221.64 184.988C1221.64 176.404 1218.9 169.744 1213.42 165.008C1207.95 160.272 1199.66 157.904 1188.56 157.904H1143.27L1159.26 140.81V228.944ZM1346.48 286.664C1334.2 286.664 1322.8 284.666 1312.29 280.67C1301.93 276.674 1292.9 271.05 1285.21 263.798C1277.66 256.546 1271.74 248.036 1267.45 238.268C1263.3 228.5 1261.23 217.844 1261.23 206.3C1261.23 194.756 1263.3 184.1 1267.45 174.332C1271.74 164.564 1277.73 156.054 1285.43 148.802C1293.13 141.55 1302.15 135.926 1312.51 131.93C1322.87 127.934 1334.12 125.936 1346.26 125.936C1358.54 125.936 1369.79 127.934 1380 131.93C1390.36 135.926 1399.32 141.55 1406.86 148.802C1414.56 156.054 1420.55 164.564 1424.85 174.332C1429.14 183.952 1431.28 194.608 1431.28 206.3C1431.28 217.844 1429.14 228.574 1424.85 238.49C1420.55 248.258 1414.56 256.768 1406.86 264.02C1399.32 271.124 1390.36 276.674 1380 280.67C1369.79 284.666 1358.62 286.664 1346.48 286.664ZM1346.26 256.028C1353.21 256.028 1359.58 254.844 1365.35 252.476C1371.27 250.108 1376.45 246.704 1380.89 242.264C1385.33 237.824 1388.73 232.57 1391.1 226.502C1393.62 220.434 1394.88 213.7 1394.88 206.3C1394.88 198.9 1393.62 192.166 1391.1 186.098C1388.73 180.03 1385.33 174.776 1380.89 170.336C1376.6 165.896 1371.49 162.492 1365.57 160.124C1359.65 157.756 1353.21 156.572 1346.26 156.572C1339.3 156.572 1332.86 157.756 1326.94 160.124C1321.17 162.492 1316.07 165.896 1311.63 170.336C1307.19 174.776 1303.71 180.03 1301.19 186.098C1298.82 192.166 1297.64 198.9 1297.64 206.3C1297.64 213.552 1298.82 220.286 1301.19 226.502C1303.71 232.57 1307.11 237.824 1311.4 242.264C1315.84 246.704 1321.02 250.108 1326.94 252.476C1332.86 254.844 1339.3 256.028 1346.26 256.028ZM1442.77 284V128.6H1513.37C1530.24 128.6 1545.11 131.856 1557.99 138.368C1570.87 144.732 1580.93 153.686 1588.18 165.23C1595.43 176.774 1599.06 190.464 1599.06 206.3C1599.06 221.988 1595.43 235.678 1588.18 247.37C1580.93 258.914 1570.87 267.942 1557.99 274.454C1545.11 280.818 1530.24 284 1513.37 284H1442.77ZM1478.74 254.474H1511.59C1521.95 254.474 1530.91 252.55 1538.45 248.702C1546.15 244.706 1552.07 239.082 1556.21 231.83C1560.51 224.578 1562.65 216.068 1562.65 206.3C1562.65 196.384 1560.51 187.874 1556.21 180.77C1552.07 173.518 1546.15 167.968 1538.45 164.12C1530.91 160.124 1521.95 158.126 1511.59 158.126H1478.74V254.474ZM1610.64 284V128.6H1646.61V254.696H1724.53V284H1610.64ZM1709.53 284L1778.79 128.6H1814.31L1883.8 284H1846.06L1789.22 146.804H1803.43L1746.38 284H1709.53ZM1744.16 250.7L1753.7 223.394H1833.62L1843.39 250.7H1744.16ZM1884.38 284V128.6H1914.13L2005.81 240.488H1991.38V128.6H2026.9V284H1997.38L1905.47 172.112H1919.9V284H1884.38ZM2048.13 284V128.6H2118.73C2135.6 128.6 2150.47 131.856 2163.35 138.368C2176.22 144.732 2186.29 153.686 2193.54 165.23C2200.79 176.774 2204.42 190.464 2204.42 206.3C2204.42 221.988 2200.79 235.678 2193.54 247.37C2186.29 258.914 2176.22 267.942 2163.35 274.454C2150.47 280.818 2135.6 284 2118.73 284H2048.13ZM2084.09 254.474H2116.95C2127.31 254.474 2136.26 252.55 2143.81 248.702C2151.51 244.706 2157.43 239.082 2161.57 231.83C2165.86 224.578 2168.01 216.068 2168.01 206.3C2168.01 196.384 2165.86 187.874 2161.57 180.77C2157.43 173.518 2151.51 167.968 2143.81 164.12C2136.26 160.124 2127.31 158.126 2116.95 158.126H2084.09V254.474Z" fill="#2F2F2F"/>
<path d="M405.936 368L426.224 323.2H432.56L452.912 368H446.192L428.08 326.784H430.64L412.528 368H405.936ZM414.576 356.8L416.304 351.68H441.52L443.376 356.8H414.576ZM468.691 368.384C465.235 368.384 462.141 367.637 459.411 366.144C456.723 364.651 454.611 362.603 453.075 360C451.539 357.397 450.771 354.411 450.771 351.04C450.771 347.669 451.539 344.683 453.075 342.08C454.611 339.477 456.723 337.451 459.411 336C462.141 334.507 465.235 333.76 468.691 333.76C471.763 333.76 474.493 334.379 476.883 335.616C479.315 336.811 481.192 338.603 482.515 340.992L477.843 344C476.733 342.336 475.368 341.12 473.747 340.352C472.168 339.541 470.461 339.136 468.627 339.136C466.408 339.136 464.424 339.627 462.675 340.608C460.925 341.589 459.539 342.976 458.515 344.768C457.491 346.517 456.979 348.608 456.979 351.04C456.979 353.472 457.491 355.584 458.515 357.376C459.539 359.168 460.925 360.555 462.675 361.536C464.424 362.517 466.408 363.008 468.627 363.008C470.461 363.008 472.168 362.624 473.747 361.856C475.368 361.045 476.733 359.808 477.843 358.144L482.515 361.088C481.192 363.435 479.315 365.248 476.883 366.528C474.493 367.765 471.763 368.384 468.691 368.384ZM500.273 368.384C496.817 368.384 493.724 367.637 490.993 366.144C488.305 364.651 486.193 362.603 484.657 360C483.121 357.397 482.353 354.411 482.353 351.04C482.353 347.669 483.121 344.683 484.657 342.08C486.193 339.477 488.305 337.451 490.993 336C493.724 334.507 496.817 333.76 500.273 333.76C503.345 333.76 506.076 334.379 508.465 335.616C510.897 336.811 512.774 338.603 514.097 340.992L509.425 344C508.316 342.336 506.95 341.12 505.329 340.352C503.75 339.541 502.044 339.136 500.209 339.136C497.99 339.136 496.006 339.627 494.257 340.608C492.508 341.589 491.121 342.976 490.097 344.768C489.073 346.517 488.561 348.608 488.561 351.04C488.561 353.472 489.073 355.584 490.097 357.376C491.121 359.168 492.508 360.555 494.257 361.536C496.006 362.517 497.99 363.008 500.209 363.008C502.044 363.008 503.75 362.624 505.329 361.856C506.95 361.045 508.316 359.808 509.425 358.144L514.097 361.088C512.774 363.435 510.897 365.248 508.465 366.528C506.076 367.765 503.345 368.384 500.273 368.384ZM532.175 368.384C528.549 368.384 525.349 367.637 522.575 366.144C519.845 364.651 517.711 362.603 516.175 360C514.682 357.397 513.935 354.411 513.935 351.04C513.935 347.669 514.661 344.683 516.111 342.08C517.605 339.477 519.631 337.451 522.191 336C524.794 334.507 527.717 333.76 530.959 333.76C534.245 333.76 537.146 334.485 539.663 335.936C542.181 337.387 544.143 339.435 545.551 342.08C547.002 344.683 547.728 347.733 547.728 351.232C547.728 351.488 547.706 351.787 547.663 352.128C547.663 352.469 547.642 352.789 547.599 353.088H518.735V348.672H544.399L541.903 350.208C541.946 348.032 541.498 346.091 540.559 344.384C539.621 342.677 538.319 341.355 536.655 340.416C535.034 339.435 533.135 338.944 530.959 338.944C528.826 338.944 526.927 339.435 525.263 340.416C523.599 341.355 522.298 342.699 521.359 344.448C520.421 346.155 519.951 348.117 519.951 350.336V351.36C519.951 353.621 520.463 355.648 521.487 357.44C522.554 359.189 524.026 360.555 525.903 361.536C527.781 362.517 529.935 363.008 532.367 363.008C534.373 363.008 536.186 362.667 537.807 361.984C539.471 361.301 540.922 360.277 542.159 358.912L545.551 362.88C544.015 364.672 542.095 366.037 539.791 366.976C537.53 367.915 534.991 368.384 532.175 368.384ZM561.507 368.384C558.691 368.384 556.003 368 553.443 367.232C550.926 366.464 548.942 365.525 547.491 364.416L550.051 359.552C551.502 360.533 553.294 361.365 555.427 362.048C557.56 362.731 559.736 363.072 561.955 363.072C564.814 363.072 566.862 362.667 568.099 361.856C569.379 361.045 570.019 359.915 570.019 358.464C570.019 357.397 569.635 356.565 568.867 355.968C568.099 355.371 567.075 354.923 565.795 354.624C564.558 354.325 563.171 354.069 561.635 353.856C560.099 353.6 558.563 353.301 557.027 352.96C555.491 352.576 554.083 352.064 552.803 351.424C551.523 350.741 550.499 349.824 549.731 348.672C548.963 347.477 548.579 345.899 548.579 343.936C548.579 341.888 549.155 340.096 550.307 338.56C551.459 337.024 553.08 335.851 555.171 335.04C557.304 334.187 559.822 333.76 562.723 333.76C564.942 333.76 567.182 334.037 569.443 334.592C571.747 335.104 573.624 335.851 575.075 336.832L572.451 341.696C570.915 340.672 569.315 339.968 567.651 339.584C565.987 339.2 564.323 339.008 562.659 339.008C559.971 339.008 557.966 339.456 556.643 340.352C555.32 341.205 554.659 342.315 554.659 343.68C554.659 344.832 555.043 345.728 555.811 346.368C556.622 346.965 557.646 347.435 558.883 347.776C560.163 348.117 561.571 348.416 563.107 348.672C564.643 348.885 566.179 349.184 567.715 349.568C569.251 349.909 570.638 350.4 571.875 351.04C573.155 351.68 574.179 352.576 574.947 353.728C575.758 354.88 576.163 356.416 576.163 358.336C576.163 360.384 575.566 362.155 574.371 363.648C573.176 365.141 571.491 366.315 569.315 367.168C567.139 367.979 564.536 368.384 561.507 368.384ZM579.362 368V334.08H585.506V368H579.362ZM582.434 327.552C581.239 327.552 580.236 327.168 579.426 326.4C578.658 325.632 578.274 324.693 578.274 323.584C578.274 322.432 578.658 321.472 579.426 320.704C580.236 319.936 581.239 319.552 582.434 319.552C583.628 319.552 584.61 319.936 585.378 320.704C586.188 321.429 586.594 322.347 586.594 323.456C586.594 324.608 586.21 325.589 585.442 326.4C584.674 327.168 583.671 327.552 582.434 327.552ZM610.74 368.384C607.839 368.384 605.215 367.744 602.868 366.464C600.564 365.141 598.73 363.2 597.364 360.64C596.042 358.08 595.38 354.88 595.38 351.04C595.38 347.2 596.063 344 597.428 341.44C598.836 338.88 600.692 336.96 602.996 335.68C605.343 334.4 607.924 333.76 610.74 333.76C614.068 333.76 617.012 334.485 619.572 335.936C622.132 337.387 624.159 339.413 625.652 342.016C627.146 344.576 627.892 347.584 627.892 351.04C627.892 354.496 627.146 357.525 625.652 360.128C624.159 362.731 622.132 364.757 619.572 366.208C617.012 367.659 614.068 368.384 610.74 368.384ZM592.756 368V320.512H598.9V343.104L598.26 350.976L598.644 358.848V368H592.756ZM610.228 363.008C612.404 363.008 614.346 362.517 616.052 361.536C617.802 360.555 619.167 359.168 620.148 357.376C621.172 355.541 621.684 353.429 621.684 351.04C621.684 348.608 621.172 346.517 620.148 344.768C619.167 342.976 617.802 341.589 616.052 340.608C614.346 339.627 612.404 339.136 610.228 339.136C608.095 339.136 606.154 339.627 604.404 340.608C602.698 341.589 601.332 342.976 600.308 344.768C599.327 346.517 598.836 348.608 598.836 351.04C598.836 353.429 599.327 355.541 600.308 357.376C601.332 359.168 602.698 360.555 604.404 361.536C606.154 362.517 608.095 363.008 610.228 363.008ZM631.901 368V334.08H638.045V368H631.901ZM634.974 327.552C633.779 327.552 632.776 327.168 631.965 326.4C631.197 325.632 630.813 324.693 630.813 323.584C630.813 322.432 631.197 321.472 631.965 320.704C632.776 319.936 633.779 319.552 634.974 319.552C636.168 319.552 637.149 319.936 637.917 320.704C638.728 321.429 639.134 322.347 639.134 323.456C639.134 324.608 638.749 325.589 637.981 326.4C637.214 327.168 636.211 327.552 634.974 327.552ZM645.297 368V320.512H651.441V368H645.297ZM660.163 368.384C658.969 368.384 657.945 367.979 657.091 367.168C656.238 366.315 655.811 365.248 655.811 363.968C655.811 362.688 656.238 361.643 657.091 360.832C657.945 360.021 658.969 359.616 660.163 359.616C661.315 359.616 662.297 360.021 663.107 360.832C663.961 361.643 664.387 362.688 664.387 363.968C664.387 365.248 663.961 366.315 663.107 367.168C662.297 367.979 661.315 368.384 660.163 368.384ZM702.347 368.512C698.934 368.512 695.776 367.957 692.875 366.848C690.016 365.696 687.52 364.096 685.387 362.048C683.296 359.957 681.654 357.525 680.459 354.752C679.264 351.979 678.667 348.928 678.667 345.6C678.667 342.272 679.264 339.221 680.459 336.448C681.654 333.675 683.318 331.264 685.451 329.216C687.584 327.125 690.08 325.525 692.939 324.416C695.84 323.264 698.998 322.688 702.411 322.688C705.867 322.688 709.046 323.285 711.947 324.48C714.891 325.632 717.387 327.36 719.435 329.664L715.275 333.696C713.568 331.904 711.648 330.581 709.515 329.728C707.382 328.832 705.099 328.384 702.667 328.384C700.15 328.384 697.803 328.811 695.627 329.664C693.494 330.517 691.638 331.712 690.059 333.248C688.48 334.784 687.243 336.619 686.347 338.752C685.494 340.843 685.067 343.125 685.067 345.6C685.067 348.075 685.494 350.379 686.347 352.512C687.243 354.603 688.48 356.416 690.059 357.952C691.638 359.488 693.494 360.683 695.627 361.536C697.803 362.389 700.15 362.816 702.667 362.816C705.099 362.816 707.382 362.389 709.515 361.536C711.648 360.64 713.568 359.275 715.275 357.44L719.435 361.472C717.387 363.776 714.891 365.525 711.947 366.72C709.046 367.915 705.846 368.512 702.347 368.512ZM743.807 368V360.832L743.487 359.488V347.264C743.487 344.661 742.719 342.656 741.183 341.248C739.69 339.797 737.429 339.072 734.399 339.072C732.394 339.072 730.431 339.413 728.511 340.096C726.591 340.736 724.97 341.611 723.647 342.72L721.087 338.112C722.837 336.704 724.927 335.637 727.359 334.912C729.834 334.144 732.415 333.76 735.103 333.76C739.754 333.76 743.338 334.891 745.855 337.152C748.373 339.413 749.631 342.869 749.631 347.52V368H743.807ZM732.671 368.384C730.154 368.384 727.935 367.957 726.015 367.104C724.138 366.251 722.687 365.077 721.663 363.584C720.639 362.048 720.127 360.32 720.127 358.4C720.127 356.565 720.554 354.901 721.407 353.408C722.303 351.915 723.733 350.72 725.695 349.824C727.701 348.928 730.389 348.48 733.759 348.48H744.511V352.896H734.015C730.943 352.896 728.874 353.408 727.807 354.432C726.741 355.456 726.207 356.693 726.207 358.144C726.207 359.808 726.869 361.152 728.191 362.176C729.514 363.157 731.349 363.648 733.695 363.648C735.999 363.648 738.005 363.136 739.711 362.112C741.461 361.088 742.719 359.595 743.487 357.632L744.703 361.856C743.893 363.861 742.463 365.461 740.415 366.656C738.367 367.808 735.786 368.384 732.671 368.384ZM756.522 368V320.512H762.666V368H756.522ZM769.916 368V334.08H776.06V368H769.916ZM772.988 327.552C771.794 327.552 770.791 327.168 769.98 326.4C769.212 325.632 768.828 324.693 768.828 323.584C768.828 322.432 769.212 321.472 769.98 320.704C770.791 319.936 771.794 319.552 772.988 319.552C774.183 319.552 775.164 319.936 775.932 320.704C776.743 321.429 777.148 322.347 777.148 323.456C777.148 324.608 776.764 325.589 775.996 326.4C775.228 327.168 774.226 327.552 772.988 327.552ZM794.959 368.384C791.546 368.384 788.901 367.467 787.023 365.632C785.146 363.797 784.207 361.173 784.207 357.76V326.656H790.351V357.504C790.351 359.339 790.799 360.747 791.695 361.728C792.634 362.709 793.957 363.2 795.663 363.2C797.583 363.2 799.183 362.667 800.463 361.6L802.383 366.016C801.445 366.827 800.314 367.424 798.991 367.808C797.711 368.192 796.367 368.384 794.959 368.384ZM778.447 339.136V334.08H800.079V339.136H778.447ZM826.388 368V360.832L826.068 359.488V347.264C826.068 344.661 825.3 342.656 823.764 341.248C822.27 339.797 820.009 339.072 816.98 339.072C814.974 339.072 813.012 339.413 811.092 340.096C809.172 340.736 807.55 341.611 806.228 342.72L803.668 338.112C805.417 336.704 807.508 335.637 809.94 334.912C812.414 334.144 814.996 333.76 817.684 333.76C822.334 333.76 825.918 334.891 828.436 337.152C830.953 339.413 832.212 342.869 832.212 347.52V368H826.388ZM815.252 368.384C812.734 368.384 810.516 367.957 808.596 367.104C806.718 366.251 805.268 365.077 804.244 363.584C803.22 362.048 802.708 360.32 802.708 358.4C802.708 356.565 803.134 354.901 803.988 353.408C804.884 351.915 806.313 350.72 808.276 349.824C810.281 348.928 812.969 348.48 816.34 348.48H827.092V352.896H816.596C813.524 352.896 811.454 353.408 810.388 354.432C809.321 355.456 808.788 356.693 808.788 358.144C808.788 359.808 809.449 361.152 810.772 362.176C812.094 363.157 813.929 363.648 816.276 363.648C818.58 363.648 820.585 363.136 822.292 362.112C824.041 361.088 825.3 359.595 826.068 357.632L827.284 361.856C826.473 363.861 825.044 365.461 822.996 366.656C820.948 367.808 818.366 368.384 815.252 368.384ZM850.749 368.384C847.336 368.384 844.691 367.467 842.813 365.632C840.936 363.797 839.997 361.173 839.997 357.76V326.656H846.141V357.504C846.141 359.339 846.589 360.747 847.485 361.728C848.424 362.709 849.747 363.2 851.453 363.2C853.373 363.2 854.973 362.667 856.253 361.6L858.173 366.016C857.235 366.827 856.104 367.424 854.781 367.808C853.501 368.192 852.157 368.384 850.749 368.384ZM834.237 339.136V334.08H855.869V339.136H834.237ZM861.121 368V334.08H867.265V368H861.121ZM864.193 327.552C862.999 327.552 861.996 327.168 861.185 326.4C860.417 325.632 860.033 324.693 860.033 323.584C860.033 322.432 860.417 321.472 861.185 320.704C861.996 319.936 862.999 319.552 864.193 319.552C865.388 319.552 866.369 319.936 867.137 320.704C867.948 321.429 868.353 322.347 868.353 323.456C868.353 324.608 867.969 325.589 867.201 326.4C866.433 327.168 865.431 327.552 864.193 327.552ZM883.413 368L868.565 334.08H874.965L888.149 364.8H885.077L898.517 334.08H904.533L889.685 368H883.413ZM905.133 368.384C903.939 368.384 902.915 367.979 902.061 367.168C901.208 366.315 900.781 365.248 900.781 363.968C900.781 362.688 901.208 361.643 902.061 360.832C902.915 360.021 903.939 359.616 905.133 359.616C906.285 359.616 907.267 360.021 908.077 360.832C908.931 361.643 909.357 362.688 909.357 363.968C909.357 365.248 908.931 366.315 908.077 367.168C907.267 367.979 906.285 368.384 905.133 368.384ZM920.501 368L940.789 323.2H947.125L967.477 368H960.757L942.645 326.784H945.205L927.093 368H920.501ZM929.141 356.8L930.869 351.68H956.085L957.941 356.8H929.141ZM975.93 368L961.082 334.08H967.482L980.666 364.8H977.594L991.034 334.08H997.05L982.202 368H975.93ZM1018.3 368V360.832L1017.98 359.488V347.264C1017.98 344.661 1017.21 342.656 1015.67 341.248C1014.18 339.797 1011.92 339.072 1008.89 339.072C1006.88 339.072 1004.92 339.413 1003 340.096C1001.08 340.736 999.46 341.611 998.137 342.72L995.577 338.112C997.327 336.704 999.417 335.637 1001.85 334.912C1004.32 334.144 1006.91 333.76 1009.59 333.76C1014.24 333.76 1017.83 334.891 1020.35 337.152C1022.86 339.413 1024.12 342.869 1024.12 347.52V368H1018.3ZM1007.16 368.384C1004.64 368.384 1002.43 367.957 1000.51 367.104C998.628 366.251 997.177 365.077 996.153 363.584C995.129 362.048 994.617 360.32 994.617 358.4C994.617 356.565 995.044 354.901 995.897 353.408C996.793 351.915 998.223 350.72 1000.19 349.824C1002.19 348.928 1004.88 348.48 1008.25 348.48H1019V352.896H1008.51C1005.43 352.896 1003.36 353.408 1002.3 354.432C1001.23 355.456 1000.7 356.693 1000.7 358.144C1000.7 359.808 1001.36 361.152 1002.68 362.176C1004 363.157 1005.84 363.648 1008.19 363.648C1010.49 363.648 1012.49 363.136 1014.2 362.112C1015.95 361.088 1017.21 359.595 1017.98 357.632L1019.19 361.856C1018.38 363.861 1016.95 365.461 1014.91 366.656C1012.86 367.808 1010.28 368.384 1007.16 368.384ZM1049.12 333.76C1051.9 333.76 1054.33 334.293 1056.42 335.36C1058.55 336.427 1060.22 338.048 1061.41 340.224C1062.61 342.4 1063.2 345.152 1063.2 348.48V368H1057.06V349.184C1057.06 345.899 1056.25 343.424 1054.63 341.76C1053.05 340.096 1050.81 339.264 1047.91 339.264C1045.73 339.264 1043.83 339.691 1042.21 340.544C1040.59 341.397 1039.33 342.656 1038.44 344.32C1037.58 345.984 1037.16 348.053 1037.16 350.528V368H1031.01V334.08H1036.9V343.232L1035.94 340.8C1037.05 338.581 1038.76 336.853 1041.06 335.616C1043.36 334.379 1046.05 333.76 1049.12 333.76ZM1081.74 368.384C1078.33 368.384 1075.68 367.467 1073.81 365.632C1071.93 363.797 1070.99 361.173 1070.99 357.76V326.656H1077.13V357.504C1077.13 359.339 1077.58 360.747 1078.48 361.728C1079.42 362.709 1080.74 363.2 1082.45 363.2C1084.37 363.2 1085.97 362.667 1087.25 361.6L1089.17 366.016C1088.23 366.827 1087.1 367.424 1085.77 367.808C1084.49 368.192 1083.15 368.384 1081.74 368.384ZM1065.23 339.136V334.08H1086.86V339.136H1065.23ZM1113.17 368V360.832L1112.85 359.488V347.264C1112.85 344.661 1112.08 342.656 1110.55 341.248C1109.05 339.797 1106.79 339.072 1103.76 339.072C1101.76 339.072 1099.79 339.413 1097.87 340.096C1095.95 340.736 1094.33 341.611 1093.01 342.72L1090.45 338.112C1092.2 336.704 1094.29 335.637 1096.72 334.912C1099.2 334.144 1101.78 333.76 1104.47 333.76C1109.12 333.76 1112.7 334.891 1115.22 337.152C1117.74 339.413 1118.99 342.869 1118.99 347.52V368H1113.17ZM1102.03 368.384C1099.52 368.384 1097.3 367.957 1095.38 367.104C1093.5 366.251 1092.05 365.077 1091.03 363.584C1090 362.048 1089.49 360.32 1089.49 358.4C1089.49 356.565 1089.92 354.901 1090.77 353.408C1091.67 351.915 1093.1 350.72 1095.06 349.824C1097.06 348.928 1099.75 348.48 1103.12 348.48H1113.87V352.896H1103.38C1100.31 352.896 1098.24 353.408 1097.17 354.432C1096.1 355.456 1095.57 356.693 1095.57 358.144C1095.57 359.808 1096.23 361.152 1097.55 362.176C1098.88 363.157 1100.71 363.648 1103.06 363.648C1105.36 363.648 1107.37 363.136 1109.07 362.112C1110.82 361.088 1112.08 359.595 1112.85 357.632L1114.07 361.856C1113.26 363.861 1111.83 365.461 1109.78 366.656C1107.73 367.808 1105.15 368.384 1102.03 368.384ZM1121.53 380.8C1120.12 380.8 1118.78 380.629 1117.5 380.288C1116.18 379.947 1115.07 379.435 1114.17 378.752L1116.16 374.016C1117.44 375.083 1119.1 375.616 1121.15 375.616C1122.77 375.616 1124.01 375.104 1124.86 374.08C1125.76 373.099 1126.2 371.627 1126.2 369.664V334.08H1132.35V369.536C1132.35 372.992 1131.41 375.723 1129.53 377.728C1127.7 379.776 1125.03 380.8 1121.53 380.8ZM1129.28 327.552C1128.08 327.552 1127.08 327.168 1126.27 326.4C1125.5 325.632 1125.12 324.693 1125.12 323.584C1125.12 322.432 1125.5 321.472 1126.27 320.704C1127.08 319.936 1128.08 319.552 1129.28 319.552C1130.47 319.552 1131.45 319.936 1132.22 320.704C1133.03 321.429 1133.44 322.347 1133.44 323.456C1133.44 324.608 1133.05 325.589 1132.28 326.4C1131.52 327.168 1130.51 327.552 1129.28 327.552ZM1154.12 368.384C1150.71 368.384 1147.68 367.637 1145.03 366.144C1142.39 364.651 1140.3 362.603 1138.76 360C1137.22 357.355 1136.46 354.368 1136.46 351.04C1136.46 347.669 1137.22 344.683 1138.76 342.08C1140.3 339.477 1142.39 337.451 1145.03 336C1147.68 334.507 1150.71 333.76 1154.12 333.76C1157.49 333.76 1160.5 334.507 1163.14 336C1165.83 337.451 1167.92 339.477 1169.42 342.08C1170.95 344.64 1171.72 347.627 1171.72 351.04C1171.72 354.411 1170.95 357.397 1169.42 360C1167.92 362.603 1165.83 364.651 1163.14 366.144C1160.5 367.637 1157.49 368.384 1154.12 368.384ZM1154.12 363.008C1156.3 363.008 1158.24 362.517 1159.94 361.536C1161.69 360.555 1163.06 359.168 1164.04 357.376C1165.02 355.541 1165.51 353.429 1165.51 351.04C1165.51 348.608 1165.02 346.517 1164.04 344.768C1163.06 342.976 1161.69 341.589 1159.94 340.608C1158.24 339.627 1156.3 339.136 1154.12 339.136C1151.94 339.136 1150 339.627 1148.3 340.608C1146.59 341.589 1145.22 342.976 1144.2 344.768C1143.18 346.517 1142.66 348.608 1142.66 351.04C1142.66 353.429 1143.18 355.541 1144.2 357.376C1145.22 359.168 1146.59 360.555 1148.3 361.536C1150 362.517 1151.94 363.008 1154.12 363.008ZM1185.46 368.384C1182.65 368.384 1179.96 368 1177.4 367.232C1174.88 366.464 1172.9 365.525 1171.45 364.416L1174.01 359.552C1175.46 360.533 1177.25 361.365 1179.38 362.048C1181.52 362.731 1183.69 363.072 1185.91 363.072C1188.77 363.072 1190.82 362.667 1192.06 361.856C1193.34 361.045 1193.98 359.915 1193.98 358.464C1193.98 357.397 1193.59 356.565 1192.82 355.968C1192.06 355.371 1191.03 354.923 1189.75 354.624C1188.52 354.325 1187.13 354.069 1185.59 353.856C1184.06 353.6 1182.52 353.301 1180.98 352.96C1179.45 352.576 1178.04 352.064 1176.76 351.424C1175.48 350.741 1174.46 349.824 1173.69 348.672C1172.92 347.477 1172.54 345.899 1172.54 343.936C1172.54 341.888 1173.11 340.096 1174.26 338.56C1175.42 337.024 1177.04 335.851 1179.13 335.04C1181.26 334.187 1183.78 333.76 1186.68 333.76C1188.9 333.76 1191.14 334.037 1193.4 334.592C1195.7 335.104 1197.58 335.851 1199.03 336.832L1196.41 341.696C1194.87 340.672 1193.27 339.968 1191.61 339.584C1189.94 339.2 1188.28 339.008 1186.62 339.008C1183.93 339.008 1181.92 339.456 1180.6 340.352C1179.28 341.205 1178.62 342.315 1178.62 343.68C1178.62 344.832 1179 345.728 1179.77 346.368C1180.58 346.965 1181.6 347.435 1182.84 347.776C1184.12 348.117 1185.53 348.416 1187.06 348.672C1188.6 348.885 1190.14 349.184 1191.67 349.568C1193.21 349.909 1194.6 350.4 1195.83 351.04C1197.11 351.68 1198.14 352.576 1198.9 353.728C1199.72 354.88 1200.12 356.416 1200.12 358.336C1200.12 360.384 1199.52 362.155 1198.33 363.648C1197.13 365.141 1195.45 366.315 1193.27 367.168C1191.1 367.979 1188.49 368.384 1185.46 368.384ZM1204.79 368.384C1203.6 368.384 1202.57 367.979 1201.72 367.168C1200.87 366.315 1200.44 365.248 1200.44 363.968C1200.44 362.688 1200.87 361.643 1201.72 360.832C1202.57 360.021 1203.6 359.616 1204.79 359.616C1205.94 359.616 1206.92 360.021 1207.73 360.832C1208.59 361.643 1209.01 362.688 1209.01 363.968C1209.01 365.248 1208.59 366.315 1207.73 367.168C1206.92 367.979 1205.94 368.384 1204.79 368.384Z" fill="#2F2F2F"/>
<path d="M209 43L272 80V143.5L209.5 177L143.5 137.5V81L209 43Z" fill="#585D61"/>
<path d="M65.5 191L0 152V78L135.5 0L201 38.5L135.5 76.5V137.5L118 148V159.5L65.5 191Z" fill="#274976"/>
<path d="M124 291.5L0 219.5V161.5L65.5 200L124 165L183 200L124 234.5V291.5Z" fill="#595E64"/>
<path d="M132 295.645V239L190.5 205L271.5 251.5V313L215 342L132 295.645Z" fill="#595E64"/>
<path d="M71.5 416.5V357L149.5 315L215 352L271.5 321V376L134 452L71.5 416.5Z" fill="#595E64"/>
<path d="M0 376V316L63.5 279L127.5 316.5L63.5 352.5V411.5L0 376Z" fill="#274976"/>
<path d="M0 376V316L63.5 352.5V411.5L0 376Z" fill="#193A63"/>
<path d="M63.5 279L0 316L63.5 352.5L127.5 316.5L63.5 279Z" fill="#284A77"/>
<path d="M65.5 116.5L0 78L135.5 0L201 38.5L65.5 116.5Z" fill="#274976"/>
<path d="M0 152V78L65.5 116.5V191L0 152Z" fill="#193A65"/>
<path d="M135.5 76.5L65.5 116.5V191L118 159.5V148L135.5 137.5V76.5Z" fill="#082A4F"/>
<path d="M209.5 177L143.5 137.5V81L209.5 116.5V177Z" fill="#42474D"/>
<path d="M272 143.5L209.5 177V116.5L272 80V143.5Z" fill="#313439"/>
<path d="M209.5 116.5L143.5 81L209 43L272 80L209.5 116.5Z" fill="#595E64"/>
<path d="M0 219.5V161.5L124 234.5V291.5L0 219.5Z" fill="#42474D"/>
<path d="M124 234.5L65.5 200L124 165L183 200L124 234.5Z" fill="#595E64"/>
<path d="M132 295.756V239L215 288.5V342L132 295.756Z" fill="#42474D"/>
<path d="M190.5 205L132 239L215 288.5L271.5 251.5L190.5 205Z" fill="#595E64"/>
<path d="M215 342V288.5L271.5 251.5V313L215 342Z" fill="#303438"/>
<path d="M134 452.296V396L271.5 321V376L134 452.296Z" fill="#313439"/>
<path d="M71.5 416.5L134 452V396L71.5 357V416.5Z" fill="#42474D"/>
<path d="M134 396L71.5 357L149.5 315L214.5 352L134 396Z" fill="#595E64"/>
</svg>
